<svg width="20" height="19" viewBox="0 0 20 19" fill="none" xmlns="http://www.w3.org/2000/svg">
<path d="M13.8255 7.41021C13.6838 7.26944 13.4923 7.19043 13.2926 7.19043C13.0929 7.19043 12.9014 7.26944 12.7598 7.41021L10.0464 10.0858L7.37081 7.41021C7.2292 7.26944 7.03764 7.19043 6.83796 7.19043C6.63828 7.19043 6.44672 7.26944 6.30511 7.41021C6.23427 7.48048 6.17804 7.56407 6.13967 7.65617C6.1013 7.74828 6.08154 7.84707 6.08154 7.94684C6.08154 8.04662 6.1013 8.14541 6.13967 8.23751C6.17804 8.32961 6.23427 8.41321 6.30511 8.48347L9.50976 11.6881C9.58003 11.759 9.66362 11.8152 9.75572 11.8536C9.84782 11.8919 9.94661 11.9117 10.0464 11.9117C10.1462 11.9117 10.245 11.8919 10.3371 11.8536C10.4292 11.8152 10.5128 11.759 10.583 11.6881L13.8255 8.48347C13.8963 8.41321 13.9525 8.32961 13.9909 8.23751C14.0293 8.14541 14.049 8.04662 14.049 7.94684C14.049 7.84707 14.0293 7.74828 13.9909 7.65617C13.9525 7.56407 13.8963 7.48048 13.8255 7.41021Z" fill="#858585"/>
</svg>
