<svg width="55" height="52" viewBox="0 0 55 52" fill="none" xmlns="http://www.w3.org/2000/svg">
<path d="M7.47757 9.7076L16.7955 0.441483L38.7599 0.478509L48.0261 9.79649L47.989 34.7021L38.6711 43.9683L16.7067 43.9312L7.44047 34.6132L7.47757 9.7076Z" stroke="#1D2319" stroke-width="0.882353"/>
<path d="M15.2857 14.3331L21.0416 8.55818L34.6015 8.58125L40.3255 14.3885L40.3026 29.9048L34.5466 35.6797L20.9868 35.6566L15.2627 29.8494L15.2857 14.3331Z" stroke="#1D2319" stroke-width="0.525178"/>
<path d="M32.4999 20.3538C35.1801 20.3538 37.3529 18.1811 37.3529 15.5009C37.3529 15.3194 37.3429 15.1403 37.3235 14.964C37.0886 16.859 35.4726 18.3257 33.514 18.3257C31.3938 18.3257 29.6751 16.607 29.6751 14.4868C29.6751 12.5283 31.1417 10.9122 33.0368 10.6773C32.8605 10.6579 32.6813 10.6479 32.4999 10.6479C29.8197 10.6479 27.647 12.8207 27.647 15.5009C27.647 18.1811 29.8197 20.3538 32.4999 20.3538Z" fill="#D9D9D9"/>
<path d="M54.7374 45.7981V51.2048H0.262589V45.7981C10.4663 44.5889 18.6923 44.0334 27.4984 44.0864L27.5016 44.0863C36.3077 44.0334 44.5337 44.5889 54.7374 45.7981ZM27.5 43.8239L27.5 43.8238L27.5 43.8239Z" stroke="#1D2319" stroke-width="0.525178"/>
<path d="M20.701 45.8794V49.0829H19.4133V47.3153L18.5395 49.0829H17.462L16.5817 47.3017V49.0829H15.2939V45.8794H16.851L18.0139 47.9605L19.1505 45.8794H20.701Z" fill="#1D2319"/>
<path d="M23.2909 45.8794V47.7379C23.2909 47.9105 23.3478 48.0438 23.4617 48.1377C23.58 48.2316 23.7574 48.2786 23.9939 48.2786C24.2304 48.2786 24.4078 48.2316 24.526 48.1377C24.6487 48.0408 24.71 47.9075 24.71 47.7379V45.8794H25.9977V47.7379C25.9977 48.0317 25.9079 48.2831 25.7284 48.4922C25.5488 48.6982 25.3035 48.8542 24.9925 48.9602C24.6859 49.0632 24.3443 49.1147 23.9676 49.1147C23.5909 49.1147 23.2537 49.0632 22.9558 48.9602C22.6624 48.8542 22.4302 48.6982 22.2594 48.4922C22.093 48.2862 22.0097 48.0347 22.0097 47.7379V45.8794H23.2909Z" fill="#1D2319"/>
<path d="M30.0418 49.0829L28.5898 47.6788V49.0829H27.3021V45.8794H28.5898V47.2608L30.0287 45.8794H31.5135L29.8118 47.4334L31.5989 49.0829H30.0418Z" fill="#1D2319"/>
<path d="M33.9523 46.5928V47.1153H35.4306V47.7924H33.9523V48.3695H35.6277V49.0829H32.6646V45.8794H35.6277V46.5928H33.9523Z" fill="#1D2319"/>
<path d="M39.9998 45.8794V46.5883H38.1471V47.1517H39.5136V47.8288H38.1471V49.0829H36.8594V45.8794H39.9998Z" fill="#1D2319"/>
<path fill-rule="evenodd" clip-rule="evenodd" d="M25.3181 23.9343C24.9934 23.9757 24.6442 24.0613 22.813 24.5481C22.5086 24.629 22.0559 24.7213 21.807 24.7532L21.3546 24.8112L20.5768 26.2901C20.1491 27.1035 19.6171 28.0889 19.3946 28.48C19.0971 29.003 18.9539 29.32 18.8529 29.6789C18.7774 29.9472 18.6658 30.323 18.6049 30.5141C18.5321 30.7423 18.5115 30.8788 18.5447 30.9121C18.5942 30.9616 25.1514 30.8906 26.4663 30.8264L27.0496 30.7979L27.134 30.6397C27.288 30.3507 27.4273 30.2438 27.6495 30.2438C27.832 30.2438 27.8776 30.2716 28.0707 30.5006L28.2873 30.7574H32.6126C37.3019 30.7574 37.1061 30.7693 37.0353 30.4874C37.0191 30.4229 36.8632 30.1753 36.6888 29.9372C36.5144 29.6992 36.3499 29.4253 36.3232 29.3287C36.2965 29.232 35.961 28.6068 35.5776 27.9394C34.9345 26.8196 34.0813 25.1851 34.0008 24.9183C33.9741 24.8298 33.9146 24.7987 33.7253 24.7741C33.1892 24.7045 32.6136 24.5752 31.6608 24.3104C30.3772 23.9537 29.8173 23.857 29.2213 23.8891C28.6906 23.9176 28.2745 24.0473 27.8856 24.3055L27.6245 24.4789L27.4985 24.3751C27.2818 24.1968 26.7703 23.985 26.4223 23.9295C26.0409 23.8687 25.8256 23.8696 25.3181 23.9343ZM26.6233 24.0573C26.9723 24.1396 27.3915 24.3426 27.5312 24.497C27.6076 24.5815 27.6118 24.8101 27.577 27.0355L27.5388 29.4812L27.3529 29.303C27.1175 29.0774 26.8262 28.9315 26.3849 28.8184C26.0956 28.7442 25.8084 28.7298 24.6762 28.7326C23.4836 28.7356 23.0876 28.7597 21.4751 28.9275C20.4631 29.0328 19.5254 29.1121 19.3914 29.1037L19.1476 29.0883L19.6022 28.2732C19.8521 27.825 20.3244 26.9468 20.6517 26.3216C21.4697 24.7589 21.4062 24.8514 21.6631 24.8508C21.9298 24.8503 22.7085 24.6751 23.8069 24.3686C25.2074 23.9777 25.9415 23.8967 26.6233 24.0573ZM30.9418 24.2032C32.6526 24.6626 33.2099 24.7979 33.5233 24.83L33.8592 24.8644L34.3511 25.8465C34.6216 26.3866 35.1288 27.3254 35.4781 27.9327L36.1131 29.0369L35.6534 29.0517C35.3958 29.0601 34.5245 28.9983 33.6712 28.9111C31.3883 28.6781 30.4542 28.6288 29.6568 28.6993C28.6906 28.7847 28.171 28.9572 27.8191 29.3094L27.6292 29.4993L27.6421 28.241C27.6834 24.2158 27.6707 24.5552 27.7833 24.4671C27.953 24.3343 28.2798 24.1721 28.5793 24.0718C28.8132 23.9936 28.9811 23.9807 29.5551 23.9972C30.1517 24.0142 30.3451 24.043 30.9418 24.2032ZM25.567 28.8065C26.4767 28.8819 26.9499 29.0231 27.2614 29.3124C27.3953 29.4367 27.5823 29.7267 27.5431 29.7494C27.534 29.7546 27.4405 29.798 27.3353 29.8458C27.1714 29.9203 26.8769 30.241 26.8224 30.4044C26.8114 30.4377 26.7524 30.4355 26.6546 30.3983C26.5717 30.3668 26.1677 30.3155 25.7569 30.2843C25.0275 30.2289 23.7063 30.2544 19.9521 30.3966C19.317 30.4207 18.7825 30.4312 18.7643 30.42C18.7462 30.4088 18.806 30.1392 18.8974 29.821L19.0633 29.2423L19.5458 29.2026C19.8112 29.1809 20.7217 29.0926 21.5691 29.0066C22.9389 28.8676 24.03 28.7834 24.7275 28.7629C24.8546 28.7591 25.2324 28.7787 25.567 28.8065ZM32.3027 28.8561C32.5852 28.8853 33.267 28.9566 33.8178 29.0145C34.3686 29.0723 35.1289 29.1357 35.5074 29.1553L36.1956 29.191L36.3608 29.8201L36.5259 30.4492L36.2889 30.4484C36.1585 30.4478 35.3816 30.4133 34.5625 30.3717C31.4663 30.2142 29.6228 30.2153 28.605 30.3755C28.4712 30.3966 28.4326 30.3729 28.3117 30.1954C28.1765 29.9972 27.847 29.7816 27.6793 29.7816C27.5321 29.7816 27.8077 29.371 28.0658 29.2061C28.3358 29.0334 28.8341 28.8723 29.3015 28.8065C29.6986 28.7506 31.5847 28.7818 32.3027 28.8561ZM23.7261 29.0177C23.4436 29.0418 22.7272 29.1306 22.134 29.215C21.1265 29.3584 20.3119 29.4496 19.6432 29.4937C19.4878 29.504 19.7882 29.5059 20.3108 29.4982C21.0805 29.4867 21.49 29.4498 22.4678 29.304C23.1316 29.205 23.9289 29.1082 24.2396 29.0889C25.1564 29.0319 26.1753 29.1839 26.9355 29.491C27.1052 29.5595 27.244 29.607 27.244 29.5966C27.244 29.5862 27.1065 29.5082 26.9384 29.4234C26.1644 29.0326 25.1118 28.8997 23.7261 29.0177ZM29.5038 29.0691C29.0874 29.1367 28.419 29.3591 28.1895 29.5065C27.9755 29.6439 27.9859 29.6416 28.5793 29.422C29.683 29.0134 30.8357 29.012 33.4948 29.416C34.3689 29.5487 35.2123 29.6012 35.595 29.5467C35.8764 29.5066 35.847 29.501 35.1787 29.4671C34.7833 29.4471 33.9744 29.3605 33.3812 29.2747C32.7881 29.1889 32.0783 29.0945 31.804 29.0649C31.2155 29.0016 29.9052 29.0039 29.5038 29.0691ZM23.4219 29.3738C23.1698 29.3999 22.488 29.4905 21.9068 29.575C20.6664 29.7553 19.7563 29.8411 19.4657 29.8049C19.2803 29.7819 19.2717 29.7853 19.3864 29.8366C19.6093 29.9364 20.9457 29.8614 22.057 29.6866C23.4626 29.4656 24.1459 29.405 24.8326 29.4407C25.4542 29.4729 26.2211 29.6364 26.6584 29.8299C26.7915 29.8887 26.9121 29.9253 26.9262 29.9111C26.9745 29.8628 26.2678 29.5745 25.8433 29.4693C25.3468 29.3462 24.1451 29.2988 23.4219 29.3738ZM30.1457 29.3734C29.5609 29.4305 29.0924 29.5495 28.6528 29.7527C28.2678 29.9305 28.1064 30.0602 28.4638 29.9045C29.5672 29.4238 30.7513 29.3459 32.6915 29.6266C33.2968 29.7142 33.8268 29.7958 33.8691 29.808C34.068 29.8652 35.3669 29.9278 35.641 29.8935C35.9304 29.8572 35.91 29.8528 35.3071 29.8208C34.9541 29.802 34.099 29.7052 33.4069 29.6056C32.2845 29.4441 30.9411 29.3076 30.6593 29.3265C30.6028 29.3303 30.3717 29.3514 30.1457 29.3734ZM23.3922 29.7642C23.2651 29.7762 22.5227 29.8775 21.7424 29.9893C20.8251 30.1206 20.1264 30.1936 19.7652 30.1957C19.3289 30.1982 19.2347 30.2106 19.335 30.2522C19.5414 30.3379 20.8626 30.2642 21.7488 30.1176C23.4403 29.8378 24.3224 29.7776 25.1159 29.888C25.5285 29.9454 26.1558 30.117 26.4865 30.2629C26.5925 30.3096 26.6791 30.3345 26.6791 30.3182C26.6791 30.2546 25.9147 29.9426 25.5492 29.8571C25.1692 29.7682 23.9183 29.7143 23.3922 29.7642ZM30.2553 29.7834C29.7608 29.8394 29.3812 29.9447 28.9253 30.1526C28.4954 30.3486 28.5 30.3924 28.932 30.2169C29.9981 29.7837 31.0923 29.7523 33.2254 30.0934C34.3168 30.268 35.1066 30.3338 35.6422 30.2947C35.9926 30.2691 35.9875 30.2677 35.4098 30.2324C35.085 30.2125 34.1721 30.1042 33.3812 29.9916C31.8419 29.7725 30.9035 29.71 30.2553 29.7834Z" fill="#1D2319"/>
</svg>
