<svg width="60" height="61" viewBox="0 0 60 61" fill="none" xmlns="http://www.w3.org/2000/svg">
<path fill-rule="evenodd" clip-rule="evenodd" d="M28.0803 0.0584546C19.3542 0.619376 11.3523 4.93961 6.03524 11.9607C-0.0695306 20.0218 -1.66576 30.7274 1.80911 40.3043C4.69853 48.2677 11.0156 54.7771 18.8867 57.9017C21.5839 58.9724 24.3237 59.6269 27.2922 59.9096C28.758 60.0492 31.9871 60.0273 33.2962 59.8689C37.7833 59.3261 41.8923 57.926 45.5795 55.6836C53.0137 51.1623 58.1638 43.5984 59.5956 35.0982C59.8922 33.3374 59.9487 32.6938 59.9906 30.5988C60.0347 28.3903 59.9271 26.8343 59.5987 24.9326C57.8744 14.9467 51.3018 6.58065 41.9467 2.46387C37.7725 0.626956 32.7607 -0.24242 28.0803 0.0584546ZM19.6747 12.2491C19.9636 12.3096 20.4871 12.5004 20.838 12.6732C21.3537 12.9272 21.6065 13.1179 22.1575 13.6689C22.7112 14.2226 22.8977 14.4703 23.1512 14.9885C23.5756 15.8562 23.6899 16.3575 23.6899 17.3525C23.6899 18.3475 23.5756 18.8489 23.1512 19.7166C22.897 20.2364 22.7129 20.4802 22.1575 21.0335C21.6026 21.5863 21.3573 21.77 20.838 22.0218C18.1721 23.3139 15.0541 22.2448 13.7866 19.604C13.3987 18.7957 13.2976 18.3304 13.2976 17.3525C13.2976 16.3758 13.3984 15.9107 13.7855 15.101C14.4649 13.6801 15.8361 12.5741 17.316 12.2531C17.9546 12.1147 19.0233 12.1129 19.6747 12.2491ZM43.7657 12.3945C47.243 13.5724 48.4549 17.8614 46.1104 20.6922C44.4049 22.7515 41.3796 23.1819 39.1677 21.6798C38.5574 21.2654 37.7997 20.4254 37.4698 19.7975C36.6955 18.3241 36.6978 16.3858 37.4757 14.8909C37.9014 14.0729 38.9127 13.0909 39.7583 12.6747C40.6437 12.2388 41.1633 12.1331 42.2647 12.1649C43.0001 12.1863 43.2754 12.2283 43.7657 12.3945ZM32.2637 17.6024C33.9898 18.0672 35.5217 19.1014 36.5957 20.5273C38.0318 22.4339 38.5006 24.936 37.8707 27.3319C37.3455 29.3296 35.7904 31.2367 33.8973 32.2046C32.678 32.8281 31.784 33.0338 30.2942 33.0338C28.5117 33.0338 27.335 32.6851 25.9083 31.734C24.8366 31.0196 23.6274 29.5986 23.1256 28.464C22.2273 26.4327 22.2378 23.89 23.1526 21.9378C23.6889 20.7936 24.4363 19.8574 25.4733 19.0313C26.4323 18.2673 27.4115 17.8044 28.6431 17.5328C29.5279 17.3377 31.415 17.3739 32.2637 17.6024ZM14.1501 23.085C16.6654 24.359 18.4928 24.6375 20.5949 24.0672C20.8946 23.9859 21.1479 23.9195 21.1578 23.9195C21.1677 23.9196 21.1767 24.5528 21.178 25.3267C21.1802 26.6207 21.1967 26.7927 21.3834 27.4681C21.6369 28.3855 21.9434 29.1267 22.3682 29.85L22.6979 30.4112L22.0118 30.5044C21.6345 30.5557 21.0894 30.6683 20.8004 30.7547C19.6716 31.0923 18.3601 31.9106 17.6535 32.7185L17.3277 33.0908L15.4617 33.0553C13.4406 33.0168 13.1688 32.9737 12.3232 32.5574C11.3629 32.0846 10.8568 31.3975 10.693 30.3442C10.5891 29.6756 10.7042 27.1931 10.8916 26.0583C11.1894 24.256 11.7104 23.1682 12.4513 22.8014C12.9476 22.5558 13.1827 22.5951 14.1501 23.085ZM48.2507 22.865C49.1503 23.4355 49.6824 25.0178 49.8797 27.7094C50.0716 30.3291 49.9248 31.1625 49.1313 31.9568C48.9399 32.1485 48.5384 32.424 48.2275 32.577C47.4047 32.982 46.7766 33.0755 44.8775 33.0755H43.2633L42.9268 32.7013C41.8854 31.5429 40.2926 30.7381 38.5791 30.5044L37.8956 30.4112L38.262 29.7733C39.1707 28.1908 39.6315 26.1853 39.4604 24.5573C39.4257 24.2271 39.4049 23.9472 39.4142 23.9352C39.4235 23.9233 39.6758 23.9814 39.9749 24.0642C42.0177 24.6303 43.8234 24.3722 46.2626 23.1651C47.4781 22.5636 47.7183 22.5274 48.2507 22.865ZM23.4581 32.0011C23.6475 32.1119 24.2077 32.4702 24.703 32.7974C25.7999 33.5219 26.2201 33.7379 27.1866 34.0744C28.3844 34.4913 29.06 34.6071 30.2942 34.6071C31.5285 34.6071 32.2041 34.4913 33.4018 34.0744C34.3748 33.7357 34.8661 33.483 35.9197 32.779C37.4589 31.7507 37.4116 31.7708 38.1619 31.825C41.1635 32.0419 43.1977 34.1956 44.1281 38.1413C44.5074 39.7497 44.6464 40.9929 44.6567 42.8694C44.6674 44.814 44.6161 45.1313 44.1282 46.1341C43.9273 46.5469 43.7025 46.8487 43.2847 47.2662C42.3608 48.1893 41.4305 48.608 39.9693 48.7579C38.9225 48.8653 21.6522 48.8639 20.602 48.7563C19.172 48.6098 18.2228 48.1807 17.3029 47.265C16.8751 46.8392 16.6651 46.556 16.4641 46.1341C15.9771 45.1122 15.9227 44.7916 15.9291 42.982C15.9355 41.1997 16.0129 40.3993 16.3355 38.7792C16.7233 36.8318 17.3359 35.3127 18.2078 34.1369C19.2938 32.6722 20.8813 31.8437 22.6701 31.8084C23.0261 31.8013 23.1818 31.8394 23.4581 32.0011Z" fill="#3D3D3D"/>
</svg>
