<svg width="16" height="16" viewBox="0 0 16 16" fill="none" xmlns="http://www.w3.org/2000/svg">
<path d="M1.00687 0.248047C0.477286 0.248047 0.0479736 0.681926 0.0479736 1.21714V3.15533C0.0479736 10.1132 5.62903 15.7536 12.5136 15.7536H14.4314C14.961 15.7536 15.3903 15.3197 15.3903 14.7845V12.6981C15.3903 12.2244 15.0514 11.8201 14.589 11.7422L10.3355 11.0258C9.92027 10.9558 9.50846 11.1678 9.3202 11.5483L8.57795 13.0486C5.91802 11.9668 3.79491 9.82109 2.7245 7.13286L4.209 6.38272C4.58552 6.19245 4.79522 5.77626 4.72602 5.35661L4.0171 1.05782C3.94003 0.590538 3.53999 0.248047 3.07125 0.248047H1.00687Z" fill="#1D2319"/>
<path d="M8.20878 1.07281C7.30736 1.07281 6.57662 1.67705 6.57662 2.42242V5.12164C6.57662 5.86701 7.30736 6.47125 8.20878 6.47125H9.84094V8.49567L12.2892 6.47125H13.9213C14.8228 6.47125 15.5535 5.86701 15.5535 5.12164V2.42242C15.5535 1.67705 14.8228 1.07281 13.9213 1.07281H8.20878Z" fill="#1D2319"/>
</svg>
