<svg width="19" height="19" viewBox="0 0 19 19" fill="none" xmlns="http://www.w3.org/2000/svg">
<path fill-rule="evenodd" clip-rule="evenodd" d="M2.98068 4.83521C4.51932 2.43064 7.22264 0.837891 10.2972 0.837891C15.0774 0.837891 18.9634 4.69021 18.9634 9.45566C18.9634 12.7345 17.1237 15.5811 14.4189 17.038V17.7619C14.4189 18.2378 14.0333 18.6237 13.5576 18.6237H11.8351C5.65147 18.6237 0.638672 13.6079 0.638672 7.42055V5.69699C0.638672 5.22105 1.02427 4.83521 1.49993 4.83521H2.98068ZM4.30854 6.18493C5.47092 4.09223 7.71533 2.67146 10.2972 2.67146C14.0774 2.67146 17.1309 5.71484 17.1309 9.45566C17.1309 11.8478 15.8822 13.9548 13.9933 15.1631C13.9047 15.1111 13.8056 15.0743 13.6992 15.0565L9.87874 14.4194C9.50578 14.3572 9.1359 14.5457 8.96681 14.8841L8.30014 16.2182C5.91104 15.2562 4.0041 13.3481 3.04268 10.9576L4.37603 10.2905C4.71421 10.1213 4.90256 9.75123 4.8404 9.37805L4.30854 6.18493Z" fill="#1D2319"/>
<path d="M6.07293 11.9898V11.4942L7.93403 9.4569C8.15244 9.21829 8.33231 9.01089 8.47364 8.83469C8.61497 8.65666 8.71959 8.48964 8.7875 8.33363C8.85724 8.17578 8.89211 8.01059 8.89211 7.83807C8.89211 7.63984 8.84439 7.46823 8.74895 7.32323C8.65535 7.17824 8.52687 7.06628 8.36352 6.98735C8.20017 6.90843 8.01662 6.86897 7.81289 6.86897C7.59632 6.86897 7.40727 6.91394 7.24575 7.00387C7.08607 7.09197 6.96218 7.21586 6.87408 7.37554C6.78782 7.53522 6.74469 7.72244 6.74469 7.93718H6.09495C6.09495 7.60681 6.17112 7.31681 6.32346 7.06719C6.4758 6.81758 6.6832 6.62303 6.94566 6.48353C7.20996 6.34404 7.50638 6.2743 7.83492 6.2743C8.16529 6.2743 8.45804 6.34404 8.71316 6.48353C8.96828 6.62303 9.16834 6.81116 9.31334 7.04792C9.45834 7.28469 9.53084 7.54807 9.53084 7.83807C9.53084 8.04547 9.49321 8.24828 9.41796 8.44651C9.34454 8.64289 9.21606 8.86222 9.03252 9.1045C8.85082 9.34494 8.59845 9.6386 8.27542 9.98549L7.00899 11.34V11.3841H9.62995V11.9898H6.07293Z" fill="#1D2319"/>
<path d="M10.5137 10.8335V10.2718L12.9915 6.35139H13.399V7.22137H13.1236L11.2515 10.1837V10.2278H14.5883V10.8335H10.5137ZM13.1677 11.9898V6.35139H13.8174V11.9898H13.1677Z" fill="#1D2319"/>
</svg>
