<svg width="60" height="61" viewBox="0 0 60 61" fill="none" xmlns="http://www.w3.org/2000/svg">
<path fill-rule="evenodd" clip-rule="evenodd" d="M28.6293 0.0114038C27.4612 0.0755195 25.1813 0.34536 24.2217 0.533127C23.8856 0.59881 23.4517 0.680521 23.2576 0.714628C22.6144 0.827674 20.0293 1.62719 18.9276 2.05383C14.2779 3.85473 10.0852 6.91939 6.759 10.9488C4.16991 14.085 2.05433 18.2151 1.02281 22.1464C-1.75549 32.7362 1.20733 43.7209 8.9246 51.4423C18.3094 60.8322 32.5036 62.9833 44.1762 56.7847C46.6566 55.4674 48.7412 53.9228 50.9687 51.7516C55.9284 46.9174 58.9745 40.7422 59.8603 33.7268C60.0486 32.2359 60.046 28.3342 59.8557 26.797C59.3335 22.5777 57.925 18.3651 55.8261 14.7451C50.6158 5.75856 41.2243 0.217731 30.8589 0.0146574C29.9309 -0.00354087 28.9276 -0.00498668 28.6293 0.0114038ZM32.8475 3.78495C35.9219 4.11095 38.8342 4.93108 41.6087 6.2522C48.2938 9.43545 53.4308 15.4058 55.6081 22.5225C56.1063 24.151 56.31 25.2342 56.4797 27.1585C56.649 29.0774 56.5621 32.0788 56.2844 33.9075C54.7829 43.7961 47.7728 52.0889 38.2895 55.1954C37.5949 55.4229 36.2355 55.7747 35.2686 55.9772C33.7162 56.3021 33.199 56.3529 30.8502 56.41C28.7317 56.4616 27.8731 56.4325 26.6321 56.2673C17.8232 55.0945 10.2249 49.6659 6.38443 41.8015C5.36135 39.7064 4.48422 37.0405 4.08048 34.7986C3.791 33.1912 3.75677 32.7078 3.75364 30.1715C3.74978 27.1125 3.84511 26.2954 4.52809 23.5324C6.14749 16.9806 10.5434 11.0768 16.457 7.51126C17.5162 6.87263 18.4472 6.39863 20.2533 5.57851C21.7657 4.89167 25.1715 4.0513 27.3639 3.82412C27.7616 3.7829 28.1077 3.73048 28.1329 3.70758C28.2205 3.62828 31.9472 3.68962 32.8475 3.78495ZM28.328 9.31783C23.1873 9.74313 18.3033 12.0954 14.645 15.9078C13.446 17.1573 12.6586 18.1733 11.8097 19.5659C8.16328 25.5481 7.65855 32.6531 10.425 39.057C12.7911 44.534 17.5357 48.9628 23.095 50.8836C25.4358 51.6924 28.6039 52.1471 31.0397 52.0238C34.5327 51.847 38.4941 50.5986 41.3046 48.789C43.7405 47.2206 44.9116 46.2366 46.2503 44.6337C48.798 41.5832 50.3226 38.3921 51.1334 34.4138C51.4682 32.7709 51.4271 28.2743 51.0616 26.5559C50.2656 22.813 48.5492 19.4058 45.9314 16.3721C41.7245 11.4967 34.9255 8.77212 28.328 9.31783ZM32.727 12.9924C37.4659 13.7134 41.5693 16.1952 44.5123 20.1201C45.8063 21.8458 47.1077 24.7945 47.6322 27.1889C47.9395 28.5918 47.9397 32.4318 47.6328 33.9526C47.1503 36.3421 46.1239 38.7936 44.7661 40.7988C43.1581 43.1738 40.3133 45.5984 37.6668 46.8496C33.5162 48.8119 28.837 49.0791 24.464 47.6033C19.5066 45.9303 15.5084 42.1918 13.5077 37.3586C12.9407 35.9892 12.3991 33.8478 12.2996 32.5818C12.2552 32.0184 12.201 31.3369 12.1792 31.0674C12.1574 30.7978 12.1852 30.0114 12.2411 29.3199C12.735 23.2096 16.1861 17.9162 21.6393 14.9045C23.0581 14.1208 25.3235 13.3483 27.22 13.0015C28.4061 12.7845 31.3289 12.7797 32.727 12.9924ZM28.1473 19.8723C24.506 20.4412 20.7215 22.4496 17.0262 25.7745C15.7426 26.9294 14.8505 27.8451 13.8808 29.0034L13.1938 29.8239L13.5503 30.274C14.2614 31.1719 15.8143 32.8265 16.699 33.629C20.1653 36.7735 23.3344 38.6435 26.701 39.5314C27.8573 39.8363 28.1538 39.8652 30.1358 39.8668C32.1198 39.8684 32.4082 39.8406 33.5103 39.5424C34.1732 39.3629 35.0138 39.1022 35.3784 38.963C37.3866 38.1964 39.8483 36.7148 42.019 34.9662C43.1438 34.0601 45.9302 31.2904 46.6766 30.3365L47.0662 29.8386L46.6155 29.3177C44.4785 26.8483 42.5942 25.0893 40.4 23.5158C38.7667 22.3446 36.1007 20.948 34.5892 20.4718C32.3817 19.7763 30.1134 19.5651 28.1473 19.8723ZM31.7163 22.0354C34.1112 22.4936 36.9854 23.81 39.476 25.5895C40.8744 26.5885 43.7928 29.1984 44.0509 29.6805C44.142 29.8505 43.9781 30.0917 43.2037 30.9269C41.0371 33.2641 37.2909 35.8159 34.4142 36.9142C31.9016 37.8735 29.8648 38.0429 27.6652 37.4754C24.824 36.7424 22.0324 35.2318 19.1686 32.8777C18.0056 31.9218 16.0954 30.0518 16.0954 29.8692C16.0954 29.7235 17.5121 28.2351 18.37 27.4796C20.9451 25.2118 23.8619 23.4418 26.4531 22.5744C28.5505 21.8722 30.0574 21.718 31.7163 22.0354ZM28.5088 23.2517C26.2005 23.8606 24.3232 25.6444 23.6882 27.832C23.2217 29.4394 23.2799 30.8379 23.8769 32.3615C25.2734 35.9246 29.5329 37.5774 33.0283 35.9124C34.2261 35.3417 35.015 34.6669 35.7246 33.6059C36.5579 32.3601 36.8768 31.301 36.8676 29.8099C36.857 28.1025 36.4 26.7907 35.3992 25.5953L35.0491 25.1769L34.581 25.531C34.3236 25.7258 33.2589 26.5512 32.2152 27.3654C31.1715 28.1797 30.2903 28.8458 30.2568 28.8458C30.2234 28.8458 30.1961 27.5442 30.1961 25.9533V23.0609L29.6839 23.0688C29.4022 23.0732 28.8734 23.1555 28.5088 23.2517Z" fill="#3D3D3D"/>
</svg>
