<svg width="60" height="49" viewBox="0 0 60 49" fill="none" xmlns="http://www.w3.org/2000/svg">
<path fill-rule="evenodd" clip-rule="evenodd" d="M22.1153 0.333822C21.9914 0.36784 21.5521 0.435199 21.1391 0.483409C19.0548 0.726787 16.2811 1.46631 14.6326 2.21822C10.4438 4.12882 7.40749 6.54135 4.76871 10.0557C3.98743 11.0962 3.08151 12.5498 2.56531 13.5911C1.64452 15.4486 0.84079 17.7298 0.569552 19.2553C0.507149 19.6063 0.425147 19.9977 0.3873 20.1249C0.349453 20.2521 0.293883 20.6069 0.263846 20.9134C0.233809 21.2198 0.162244 21.7409 0.104873 22.0713C-0.0177548 22.777 -0.0386308 25.9407 0.0731084 26.8773C0.258514 28.431 0.324371 28.8326 0.57218 29.9186C0.916108 31.4258 1.09386 31.9872 1.73238 33.5836C2.69905 36.0002 3.8585 37.9549 5.48262 39.906C8.56461 43.6083 12.2342 46.115 16.7086 47.5745C18.9844 48.3169 20.1681 48.5247 23.0915 48.6956C25.6511 48.8451 28.1032 48.5855 30.6143 47.899C35.5953 46.5374 39.7443 43.8232 43.071 39.7499C43.8451 38.8022 44.1763 38.3329 44.9217 37.1275C46.4319 34.686 47.5414 31.7591 48.0531 28.8673C48.5584 26.0116 48.5482 22.8257 48.0247 19.9302C47.6883 18.0702 46.5224 14.5737 46.162 14.3445C46.0871 14.2969 45.6092 14.5363 44.5238 15.1654C43.6809 15.6538 42.7973 16.1572 42.5601 16.2839C42.32 16.4122 42.1287 16.5661 42.1283 16.6312C42.128 16.6954 42.2497 17.0502 42.3987 17.4197C43.3985 19.8981 43.8951 23.0812 43.7044 25.7884C43.5224 28.3713 42.9101 30.6651 41.79 32.9599C40.3216 35.9686 38.2556 38.452 35.7072 40.2719C32.738 42.3922 29.5216 43.6101 26.0577 43.9257C23.8722 44.1248 22.1721 44.0364 20.2061 43.6213C18.4924 43.2595 17.4681 42.9082 15.731 42.0869C12.1973 40.416 8.96125 37.325 6.99868 33.7459C6.30445 32.48 5.50305 30.3944 5.30052 29.3268C5.23549 28.9838 5.13366 28.512 5.07434 28.2783C4.95043 27.7906 4.76007 26.2327 4.69677 25.1877C4.58585 23.3576 4.9855 20.4877 5.63078 18.4806C6.27854 16.466 7.72506 13.8247 9.09304 12.1589C9.76348 11.3425 11.437 9.73358 12.3907 8.98858C13.4223 8.1826 15.2955 7.05882 16.291 6.64851C18.0471 5.92469 18.3163 5.83698 20.0054 5.43853C21.3059 5.1317 22.0801 5.04925 24.0302 5.00997C25.8665 4.97303 25.9913 4.97971 27.0715 5.17255C29.2612 5.56334 30.6093 5.96899 32.2905 6.74275C35.0134 7.99607 37.3667 9.80071 39.1738 12.0213C39.4974 12.419 39.8505 12.8471 39.9583 12.9725L40.1544 13.2006L40.7468 12.8613C41.0727 12.6746 41.6434 12.3438 42.0151 12.1261C42.3868 11.9084 43.0205 11.5449 43.4231 11.3183C43.9675 11.0119 44.1553 10.8676 44.1553 10.7561C44.1553 10.5746 42.7069 8.76119 41.7486 7.74292C39.2101 5.04541 35.8992 2.906 32.2529 1.60696C31.1589 1.21722 29.2679 0.743382 28.2074 0.593271C27.7892 0.534097 27.109 0.434297 26.696 0.371594C25.8785 0.247389 22.5305 0.21983 22.1153 0.333822ZM56.771 2.33191C56.6264 2.43321 56.199 2.68402 55.8212 2.88926C55.4433 3.09449 54.6075 3.57448 53.9637 3.95596C52.1421 5.03543 51.4007 5.46196 50.4025 6.00511C49.8941 6.28168 49.4326 6.5798 49.377 6.66766C49.3213 6.75545 49.1491 7.33419 48.9945 7.95371C48.8399 8.57323 48.6762 9.11916 48.6308 9.16685C48.5854 9.21453 47.8555 9.65008 47.0088 10.1347C46.1621 10.6193 44.9963 11.293 44.4181 11.6318C43.8399 11.9705 42.9444 12.4867 42.4281 12.7787C41.9118 13.0707 41.1853 13.4862 40.8136 13.7021C40.1291 14.0996 39.2653 14.5998 37.0214 15.8979C36.3399 16.2922 35.3599 16.8617 34.8437 17.1636C34.3274 17.4654 33.5671 17.9035 33.1541 18.1371C32.7411 18.3706 32.1328 18.7145 31.8024 18.9014C31.472 19.0884 30.982 19.3745 30.7135 19.5375C29.7452 20.1252 27.6457 21.3451 26.3581 22.0681C24.1729 23.2952 23.9571 23.4404 23.7982 23.7903C23.6164 24.1904 23.6191 24.4658 23.8083 24.8568C23.9888 25.2297 24.3534 25.413 24.9144 25.413C25.2345 25.413 25.4241 25.3217 26.809 24.5014C28.84 23.2985 29.3612 22.9974 31.5396 21.7681C32.5514 21.197 33.8693 20.4385 34.4682 20.0826C35.0671 19.7267 36.0301 19.1688 36.6084 18.8429C37.1866 18.517 37.9976 18.0482 38.4106 17.8009C39.1317 17.3693 41.7045 15.8852 44.1553 14.4871C44.7954 14.1219 45.8768 13.4959 46.5583 13.096C49.207 11.5416 49.7808 11.2203 49.908 11.2203C50.048 11.2203 51.7915 11.6998 52.1258 11.8302C52.3619 11.9223 52.5065 11.8563 53.8179 11.0576C54.3063 10.7602 54.9931 10.3608 55.3442 10.1702C56.1556 9.7296 56.943 9.27739 58.5025 8.35644C59.1864 7.95259 59.803 7.60025 59.8729 7.57336C59.9428 7.54656 60 7.46223 60 7.38586C60 7.28448 59.9242 7.23372 59.7184 7.19737C59.5636 7.16996 59.2509 7.08833 59.0238 7.01594C58.7966 6.94355 58.1787 6.77294 57.6506 6.6368C57.1224 6.50065 56.6388 6.35159 56.5759 6.30556C56.4749 6.23167 56.5032 5.99159 56.8185 4.25258C57.0409 3.02547 57.1488 2.25764 57.1047 2.21544C57.0619 2.17451 56.9296 2.2207 56.771 2.33191ZM22.4908 9.8728C21.2562 9.97658 19.2473 10.5175 18.0611 11.0655C13.5429 13.1529 10.2966 17.489 9.64708 22.3042C9.54038 23.0951 9.52446 23.5964 9.56043 25.0375C9.60225 26.7153 9.61727 26.8558 9.86583 27.891C10.8315 31.9132 13.2284 35.1641 16.7461 37.2223C19.4997 38.8335 22.529 39.4702 25.9036 39.1471C26.8994 39.0517 28.7443 38.6119 29.6247 38.2601C31.0843 37.6766 32.5436 36.7703 33.9137 35.5962C34.6449 34.9697 35.0291 34.5504 36.2156 33.0844C36.9786 32.1418 37.885 30.2593 38.2969 28.7619C38.7659 27.0573 38.8911 26.1869 38.9098 24.5004C38.9276 22.8969 38.8222 22.1116 38.3571 20.3817C38.1016 19.4314 37.9661 19.1051 37.8267 19.1051C37.7761 19.1052 37.1772 19.4322 36.4957 19.8319C35.8143 20.2317 34.8681 20.7764 34.3931 21.0425C33.9181 21.3086 33.4843 21.5626 33.4291 21.6069C33.3175 21.6965 33.3365 21.9001 33.521 22.597C33.5865 22.8448 33.6619 23.4699 33.6884 23.9862C33.8977 28.0611 31.4271 31.8722 27.6087 33.3648C26.7511 33.7001 25.0506 34.0487 24.2733 34.0487C23.5416 34.0487 21.9818 33.7606 21.1391 33.4698C19.6887 32.9693 18.4486 32.1597 17.3354 30.9865C16.061 29.6434 15.2835 28.1371 14.9022 26.273C14.7236 25.3999 14.7073 25.1888 14.7429 24.2115C14.7894 22.9334 14.9832 22.0812 15.5132 20.8259C16.5944 18.2641 18.6133 16.3709 21.1489 15.5411C21.6703 15.3705 22.3706 15.2167 23.0876 15.1154C24.1844 14.9605 24.2322 14.9598 25.1841 15.0856C25.7198 15.1564 26.4044 15.2788 26.7053 15.3576C28.0672 15.7143 29.6472 16.6276 30.7749 17.71C31.304 18.2178 31.4188 18.2962 31.5258 18.2225C31.7652 18.0577 33.5305 17.0202 34.0552 16.736C34.9022 16.2772 35.895 15.6476 35.895 15.5694C35.895 15.4328 34.7874 14.186 34.1963 13.6571C31.7337 11.454 29.0273 10.2237 25.87 9.87175C25.0905 9.78494 23.5312 9.78539 22.4908 9.8728ZM22.861 19.7332C22.0092 19.967 21.4666 20.2636 20.8543 20.8304C20.2424 21.3968 19.9179 21.871 19.6073 22.653C19.2817 23.4725 19.175 24.2854 19.2924 25.052C19.5549 26.7668 20.4715 28.0384 21.9872 28.7904C22.6172 29.103 23.2649 29.2406 24.1053 29.2403C25.7301 29.2399 26.9857 28.6731 27.8941 27.5299C28.5047 26.7613 28.9864 25.5058 28.9864 24.6823C28.9864 24.185 28.9142 24.1795 28.1979 24.623C27.4741 25.0712 25.6908 26.0621 25.4333 26.1592C24.9174 26.3539 24.0545 26.1393 23.5881 25.7005C23.4482 25.5689 23.2501 25.2785 23.148 25.0554C22.8309 24.3627 22.9851 23.4656 23.5096 22.9528C23.7089 22.758 25.3566 21.7485 26.5319 21.1013C26.8133 20.9463 27.0639 20.7665 27.0888 20.7016C27.1499 20.5424 26.8899 20.3387 26.2455 20.0408C25.1579 19.5382 23.9661 19.4299 22.861 19.7332Z" fill="#3D3D3D"/>
</svg>
